HIERARCHY
ROOT root
{
	OFFSET 0.00 0.00 0.00
	CHANNELS 6 Xposition Yposition Zposition Zrotation Xrotation Yrotation
	JOINT lowerback
	{
		OFFSET 0 0 0
		CHANNELS 6 Xposition Yposition Zposition Zrotation Xrotation Yrotation
		JOINT upperback
		{
			OFFSET -0.214371 12.3768 -1.12219
			CHANNELS 6 Xposition Yposition Zposition Zrotation Xrotation Yrotation
			JOINT thorax
			{
				OFFSET -0.00137213 12.3873 0.296195
				CHANNELS 6 Xposition Yposition Zposition Zrotation Xrotation Yrotation
				JOINT lowerneck
				{
					OFFSET 0.0883157 12.5016 0.82912
					CHANNELS 6 Xposition Yposition Zposition Zrotation Xrotation Yrotation
					JOINT upperneck
					{
						OFFSET -1 10.1794 0.943522
						CHANNELS 6 Xposition Yposition Zposition Zrotation Xrotation Yrotation
						JOINT head
						{
							OFFSET 0.667525 10.2797 -1.57149
							CHANNELS 6 Xposition Yposition Zposition Zrotation Xrotation Yrotation
							End Site
							{
								OFFSET 0 0 0
							}
						}
					}
				}
				JOINT lclavicle
				{
					OFFSET 0.0883157 12.5016 0.82912
					CHANNELS 6 Xposition Yposition Zposition Zrotation Xrotation Yrotation
					JOINT lhumerus
					{
						OFFSET 20.61 4.45006 1.43784
						CHANNELS 6 Xposition Yposition Zposition Zrotation Xrotation Yrotation
						JOINT lradius
						{
							OFFSET 0 -30.3438 0
							CHANNELS 6 Xposition Yposition Zposition Zrotation Xrotation Yrotation
							JOINT lwrist
							{
								OFFSET 0 -18.964 0
								CHANNELS 6 Xposition Yposition Zposition Zrotation Xrotation Yrotation
								JOINT lhand
								{
									OFFSET 0 -9.48199 0
									CHANNELS 6 Xposition Yposition Zposition Zrotation Xrotation Yrotation
									JOINT lfingers
									{
										OFFSET 0 -3.17138 0
										CHANNELS 6 Xposition Yposition Zposition Zrotation Xrotation Yrotation
										End Site
										{
											OFFSET 0 -2.55685 0
										}
									}
								}
								JOINT lthumb
								{
									OFFSET 0 -9.48199 0
									CHANNELS 6 Xposition Yposition Zposition Zrotation Xrotation Yrotation
									End Site
									{
										OFFSET 0 -3.67114 0
									}
								}
							}
						}
					}
				}
				JOINT rclavicle
				{
					OFFSET 0.0883157 12.5016 0.82912
					CHANNELS 6 Xposition Yposition Zposition Zrotation Xrotation Yrotation
					JOINT rhumerus
					{
						OFFSET -20.61 4.45 1.44
						CHANNELS 6 Xposition Yposition Zposition Zrotation Xrotation Yrotation
						JOINT rradius
						{
							OFFSET 0 -29.5102 0
							CHANNELS 6 Xposition Yposition Zposition Zrotation Xrotation Yrotation
							JOINT rwrist
							{
								OFFSET 0 -19.2342 0
								CHANNELS 6 Xposition Yposition Zposition Zrotation Xrotation Yrotation
								JOINT rhand
								{
									OFFSET 0 -9.61712 0
									CHANNELS 6 Xposition Yposition Zposition Zrotation Xrotation Yrotation
									JOINT rfingers
									{
										OFFSET 0 -3.29215 0
										CHANNELS 6 Xposition Yposition Zposition Zrotation Xrotation Yrotation
										End Site
										{
											OFFSET 0 -2.557 0
										}
									}
								}
								JOINT rthumb
								{
									OFFSET 0 -9.61712 0
									CHANNELS 6 Xposition Yposition Zposition Zrotation Xrotation Yrotation
									End Site
									{
										OFFSET 0 -3.671 0
									}
								}
							}
						}
					}
				}
			}
		}
	}
	JOINT rfemur
	{
		OFFSET -8.46272 -9.62775 4.76248
		CHANNELS 6 Xposition Yposition Zposition Zrotation Xrotation Yrotation
		JOINT rtibia
		{
			OFFSET 1.00552e-005 -38.0331 0
			CHANNELS 6 Xposition Yposition Zposition Zrotation Xrotation Yrotation
			JOINT rfoot
			{
				OFFSET 1.14428e-005 -43.2815 0
				CHANNELS 6 Xposition Yposition Zposition Zrotation Xrotation Yrotation
				JOINT rtoes
				{
					OFFSET 0 -14.1868 -3.08763
					CHANNELS 6 Xposition Yposition Zposition Zrotation Xrotation Yrotation
					End Site
					{
						OFFSET 0 -7.27332 0
					}
				}
			}
		}
	}
	JOINT lfemur
	{
		OFFSET 9.10607 -9.62778 4.76249
		CHANNELS 6 Xposition Yposition Zposition Zrotation Xrotation Yrotation
		JOINT ltibia
		{
			OFFSET -1.01399e-005 -38.3535 0
			CHANNELS 6 Xposition Yposition Zposition Zrotation Xrotation Yrotation
			JOINT lfoot
			{
				OFFSET -1.12937e-005 -42.7176 0
				CHANNELS 6 Xposition Yposition Zposition Zrotation Xrotation Yrotation
				JOINT ltoes
				{
					OFFSET 0 -13.9965 -2.83857
					CHANNELS 6 Xposition Yposition Zposition Zrotation Xrotation Yrotation
					End Site
					{
						OFFSET 0 -7.16348 0
					}
				}
			}
		}
	}
}
MOTION
Frames: 10
Frame Time: 0.00833333
13.3709	97.4036	47.5644	-4.45334	-1.16655	3.06434	0 0 0 1.77058	-8.78331	-7.15269	-0.214371 12.3768 -1.12219 7.48579	-1.68821	-10.5558	-0.00137213 12.3873 0.296195 5.59073	4.09653	-5.50189	0.0883157 12.5016 0.82912 10.98	1.64832	11.517	-1 10.1794 0.943522 -13.5472	3.44502	15.9389	0.667525 10.2797 -1.57149 -5.40701	2.68545	7.89882	0.0883157 12.5016 0.82912 -15	0	-0	20.61 4.45006 1.43784 7.91466	5.81569	-167.256	0 -30.3438 0 -0	13.1642	-0	0 -18.964 0 1.31548e-014	-3.39973e-015	-118.981	0 -9.48199 0 1.22245	4.37968	-2.58917e-014	0 -3.17138 0 -0	7.12502	-0	0 -9.48199 0 25	15	-1.36605e-015	0.0883157 12.5016 0.82912 15	0	-0	-20.61 4.45 1.44 -22.4696	8.96061	165.261	0 -29.5102 0 -0	27.7698	-0	0 -19.2342 0 9.00892e-016	-3.43962e-015	119.354	0 -9.61712 0 1.22	4.38	-0	0 -3.29215 0 -0	7.12502	-0	0 -9.61712 0 25	15	-7.97034e-015	-8.46272 -9.62775 4.76248 14.1043	-16.3271	4.10226	1.00552e-005 -38.0331 0 -0	32.0719	-0	1.14428e-005 -43.2815 0 -29.0964	-71.0744	-30.4689	0 -14.1868 -3.08763 -0	-10.4152	-0	9.10607 -9.62778 4.76249 3.01815	21.6774	11.9022	-1.01399e-005 -38.3535 0 -0	29.0168	-0	-1.12937e-005 -42.7176 0 6.83339	-44.7114	9.66592	0 -13.9965 -2.83857 -0	-27.7497	-0
13.3046	97.368	48.1837	-4.5678	-1.31157	3.29719	0 0 0 1.66926	-8.71679	-7.09072	-0.214371 12.3768 -1.12219 7.40376	-1.68606	-10.4413	-0.00137213 12.3873 0.296195 5.5806	4.05791	-5.44044	0.0883157 12.5016 0.82912 10.8609	1.58993	11.4521	-1 10.1794 0.943522 -13.2639	3.5919	15.8435	0.667525 10.2797 -1.57149 -5.28703	2.68976	7.8519	0.0883157 12.5016 0.82912 -15	0	-0	20.61 4.45006 1.43784 8.51762	6.5162	-169.291	0 -30.3438 0 -0	13.8025	-0	0 -18.964 0 1.32254e-014	-3.26892e-015	-117.767	0 -9.48199 0 1.22245	4.37968	-2.58917e-014	0 -3.17138 0 -0	7.12502	-0	0 -9.48199 0 25	15	-1.36605e-015	0.0883157 12.5016 0.82912 15	0	-0	-20.61 4.45 1.44 -22.2871	8.71814	165.841	0 -29.5102 0 -0	27.7493	-0	0 -19.2342 0 9.07266e-016	-3.45093e-015	119.46	0 -9.61712 0 1.22	4.38	-0	0 -3.29215 0 -0	7.12502	-0	0 -9.61712 0 25	15	-7.97034e-015	-8.46272 -9.62775 4.76248 14.2697	-15.7458	3.93544	1.00552e-005 -38.0331 0 -0	32.0351	-0	1.14428e-005 -43.2815 0 -30.2947	-71.3627	-31.6563	0 -14.1868 -3.08763 -0	-10.646	-0	9.10607 -9.62778 4.76249 4.00404	19.7261	11.6825	-1.01399e-005 -38.3535 0 -0	32.9387	-0	-1.12937e-005 -42.7176 0 6.33907	-44.5117	9.00385	0 -13.9965 -2.83857 -0	-26.9957	-0
13.2615	97.3031	48.7802	-4.77715	-1.48012	3.53722	0 0 0 1.68852	-8.6124	-7.00959	-0.214371 12.3768 -1.12219 7.34124	-1.67343	-10.3146	-0.00137213 12.3873 0.296195 5.53109	3.99252	-5.37325	0.0883157 12.5016 0.82912 10.7343	1.53897	11.379	-1 10.1794 0.943522 -12.9769	3.7243	15.7361	0.667525 10.2797 -1.57149 -5.1664	2.6869	7.79943	0.0883157 12.5016 0.82912 -15	0	-0	20.61 4.45006 1.43784 9.15721	7.18743	-171.391	0 -30.3438 0 -0	14.5115	-0	0 -18.964 0 1.32999e-014	-3.1235e-015	-116.433	0 -9.48199 0 1.22245	4.37968	-2.58917e-014	0 -3.17138 0 -0	7.12502	-0	0 -9.48199 0 25	15	-1.36605e-015	0.0883157 12.5016 0.82912 15	0	-0	-20.61 4.45 1.44 -22.0968	8.4654	166.435	0 -29.5102 0 -0	27.7156	-0	0 -19.2342 0 9.14204e-016	-3.46318e-015	119.575	0 -9.61712 0 1.22	4.38	-0	0 -3.29215 0 -0	7.12502	-0	0 -9.61712 0 25	15	-7.97034e-015	-8.46272 -9.62775 4.76248 14.5394	-15.1343	3.7763	1.00552e-005 -38.0331 0 -0	31.9526	-0	1.14428e-005 -43.2815 0 -31.5648	-71.6128	-32.9194	0 -14.1868 -3.08763 -0	-10.8725	-0	9.10607 -9.62778 4.76249 5.06191	17.7794	11.4078	-1.01399e-005 -38.3535 0 -0	36.7985	-0	-1.12937e-005 -42.7176 0 5.791	-44.455	8.23919	0 -13.9965 -2.83857 -0	-26.7001	-0
13.2165	97.2224	49.3591	-5.07891	-1.67387	3.78333	0 0 0 1.8272	-8.47087	-6.90857	-0.214371 12.3768 -1.12219 7.29852	-1.64748	-10.1746	-0.00137213 12.3873 0.296195 5.44241	3.90416	-5.29973	0.0883157 12.5016 0.82912 10.6009	1.49667	11.2966	-1 10.1794 0.943522 -12.6884	3.83352	15.6147	0.667525 10.2797 -1.57149 -5.04739	2.67459	7.7407	0.0883157 12.5016 0.82912 -15	0	-0	20.61 4.45006 1.43784 9.82875	7.80886	-173.496	0 -30.3438 0 -0	15.2702	-0	0 -18.964 0 1.33745e-014	-2.96861e-015	-115.029	0 -9.48199 0 1.22245	4.37968	-2.58917e-014	0 -3.17138 0 -0	7.12502	-0	0 -9.48199 0 25	15	-1.36605e-015	0.0883157 12.5016 0.82912 15	0	-0	-20.61 4.45 1.44 -21.8988	8.19894	167.033	0 -29.5102 0 -0	27.6703	-0	0 -19.2342 0 9.21471e-016	-3.47596e-015	119.695	0 -9.61712 0 1.22	4.38	-0	0 -3.29215 0 -0	7.12502	-0	0 -9.61712 0 25	15	-7.97034e-015	-8.46272 -9.62775 4.76248 14.9106	-14.4884	3.62358	1.00552e-005 -38.0331 0 -0	31.8177	-0	1.14428e-005 -43.2815 0 -32.8827	-71.8193	-34.2342	0 -14.1868 -3.08763 -0	-11.0885	-0	9.10607 -9.62778 4.76249 6.17552	15.8489	11.0685	-1.01399e-005 -38.3535 0 -0	40.5628	-0	-1.12937e-005 -42.7176 0 5.20586	-44.5572	7.3983	0 -13.9965 -2.83857 -0	-26.8477	-0
13.167	97.1304	49.9207	-5.46335	-1.89352	4.03474	0 0 0 2.07544	-8.29449	-6.78779	-0.214371 12.3768 -1.12219 7.27398	-1.60566	-10.0201	-0.00137213 12.3873 0.296195 5.31727	3.79834	-5.21923	0.0883157 12.5016 0.82912 10.4621	1.46393	11.2042	-1 10.1794 0.943522 -12.4002	3.91173	15.4781	0.667525 10.2797 -1.57149 -4.93235	2.65101	7.67514	0.0883157 12.5016 0.82912 -15	0	-0	20.61 4.45006 1.43784 10.5246	8.36084	-175.548	0 -30.3438 0 -0	16.0563	-0	0 -18.964 0 1.34463e-014	-2.80969e-015	-113.605	0 -9.48199 0 1.22245	4.37968	-2.58917e-014	0 -3.17138 0 -0	7.12502	-0	0 -9.48199 0 25	15	-1.36605e-015	0.0883157 12.5016 0.82912 15	0	-0	-20.61 4.45 1.44 -21.6928	7.91585	167.628	0 -29.5102 0 -0	27.6142	-0	0 -19.2342 0 9.28886e-016	-3.48893e-015	119.817	0 -9.61712 0 1.22	4.38	-0	0 -3.29215 0 -0	7.12502	-0	0 -9.61712 0 25	15	-7.97034e-015	-8.46272 -9.62775 4.76248 15.3734	-13.8062	3.4759	1.00552e-005 -38.0331 0 -0	31.6272	-0	1.14428e-005 -43.2815 0 -34.2244	-71.9799	-35.5765	0 -14.1868 -3.08763 -0	-11.2892	-0	9.10607 -9.62778 4.76249 7.32267	13.9393	10.6584	-1.01399e-005 -38.3535 0 -0	44.21	-0	-1.12937e-005 -42.7176 0 4.60051	-44.8282	6.51103	0 -13.9965 -2.83857 -0	-27.4017	-0
13.1154	97.0254	50.4665	-5.91483	-2.13872	4.29097	0 0 0 2.41632	-8.08694	-6.64807	-0.214371 12.3768 -1.12219 7.26437	-1.54602	-9.85003	-0.00137213 12.3873 0.296195 5.16034	3.68163	-5.13102	0.0883157 12.5016 0.82912 10.319	1.44138	11.101	-1 10.1794 0.943522 -12.1134	3.95275	15.3252	0.667525 10.2797 -1.57149 -4.82356	2.6149	7.60231	0.0883157 12.5016 0.82912 -15	0	-0	20.61 4.45006 1.43784 11.2348	8.82612	-177.495	0 -30.3438 0 -0	16.8478	-0	0 -18.964 0 1.35131e-014	-2.65165e-015	-112.204	0 -9.48199 0 1.22245	4.37968	-2.58917e-014	0 -3.17138 0 -0	7.12502	-0	0 -9.48199 0 25	15	-1.36605e-015	0.0883157 12.5016 0.82912 15	0	-0	-20.61 4.45 1.44 -21.4786	7.61414	168.21	0 -29.5102 0 -0	27.5476	-0	0 -19.2342 0 9.36329e-016	-3.50188e-015	119.939	0 -9.61712 0 1.22	4.38	-0	0 -3.29215 0 -0	7.12502	-0	0 -9.61712 0 25	15	-7.97034e-015	-8.46272 -9.62775 4.76248 15.9116	-13.0878	3.33188	1.00552e-005 -38.0331 0 -0	31.3813	-0	1.14428e-005 -43.2815 0 -35.5679	-72.0946	-36.9241	0 -14.1868 -3.08763 -0	-11.4708	-0	9.10607 -9.62778 4.76249 8.47693	12.0496	10.1743	-1.01399e-005 -38.3535 0 -0	47.7279	-0	-1.12937e-005 -42.7176 0 3.99221	-45.27	5.60998	0 -13.9965 -2.83857 -0	-28.3071	-0
13.063	96.9187	51	-6.41373	-2.40791	4.55176	0 0 0 2.82817	-7.85322	-6.49065	-0.214371 12.3768 -1.12219 7.26521	-1.46739	-9.66314	-0.00137213 12.3873 0.296195 4.97757	3.56104	-5.03434	0.0883157 12.5016 0.82912 10.1729	1.42946	10.9865	-1 10.1794 0.943522 -11.8286	3.95257	15.1553	0.667525 10.2797 -1.57149 -4.72301	2.56567	7.52191	0.0883157 12.5016 0.82912 -15	0	-0	20.61 4.45006 1.43784 11.9476	9.19079	-179.291	0 -30.3438 0 -0	17.6229	-0	0 -18.964 0 1.35734e-014	-2.49878e-015	-110.862	0 -9.48199 0 1.22245	4.37968	-2.58917e-014	0 -3.17138 0 -0	7.12502	-0	0 -9.48199 0 25	15	-1.36605e-015	0.0883157 12.5016 0.82912 15	0	-0	-20.61 4.45 1.44 -21.2561	7.29307	168.772	0 -29.5102 0 -0	27.4706	-0	0 -19.2342 0 9.43861e-016	-3.51493e-015	120.062	0 -9.61712 0 1.22	4.38	-0	0 -3.29215 0 -0	7.12502	-0	0 -9.61712 0 25	15	-7.97034e-015	-8.46272 -9.62775 4.76248 16.5049	-12.3355	3.19028	1.00552e-005 -38.0331 0 -0	31.0833	-0	1.14428e-005 -43.2815 0 -36.8947	-72.1659	-38.2582	0 -14.1868 -3.08763 -0	-11.6314	-0	9.10607 -9.62778 4.76249 9.60969	10.1747	9.61638	-1.01399e-005 -38.3535 0 -0	51.1115	-0	-1.12937e-005 -42.7176 0 3.39936	-45.8755	4.72987	0 -13.9965 -2.83857 -0	-29.4943	-0
13.0159	96.8188	51.5281	-6.93865	-2.69833	4.81685	0 0 0 3.28708	-7.59937	-6.31696	-0.214371 12.3768 -1.12219 7.27132	-1.36965	-9.45828	-0.00137213 12.3873 0.296195 4.77546	3.4434	-4.9284	0.0883157 12.5016 0.82912 10.0251	1.42848	10.8604	-1 10.1794 0.943522 -11.5456	3.90978	14.9679	0.667525 10.2797 -1.57149 -4.63214	2.50348	7.43375	0.0883157 12.5016 0.82912 -15	0	-0	20.61 4.45006 1.43784 12.6506	9.44487	179.101	0 -30.3438 0 -0	18.3613	-0	0 -18.964 0 1.36264e-014	-2.35492e-015	-109.61	0 -9.48199 0 1.22245	4.37968	-2.58917e-014	0 -3.17138 0 -0	7.12502	-0	0 -9.48199 0 25	15	-1.36605e-015	0.0883157 12.5016 0.82912 15	0	-0	-20.61 4.45 1.44 -21.0253	6.95345	169.306	0 -29.5102 0 -0	27.3827	-0	0 -19.2342 0 9.51543e-016	-3.52817e-015	120.187	0 -9.61712 0 1.22	4.38	-0	0 -3.29215 0 -0	7.12502	-0	0 -9.61712 0 25	15	-7.97034e-015	-8.46272 -9.62775 4.76248 17.1313	-11.5535	3.05008	1.00552e-005 -38.0331 0 -0	30.7387	-0	1.14428e-005 -43.2815 0 -38.1897	-72.1977	-39.5632	0 -14.1868 -3.08763 -0	-11.7708	-0	9.10607 -9.62778 4.76249 10.6923	8.30724	8.98778	-1.01399e-005 -38.3535 0 -0	54.36	-0	-1.12937e-005 -42.7176 0 2.84251	-46.6296	3.9069	0 -13.9965 -2.83857 -0	-30.8844	-0
12.9742	96.7274	52.054	-7.46848	-3.00601	5.08582	0 0 0 3.76926	-7.33234	-6.12833	-0.214371 12.3768 -1.12219 7.27733	-1.25372	-9.23431	-0.00137213 12.3873 0.296195 4.56039	3.33485	-4.81242	0.0883157 12.5016 0.82912 9.87656	1.43871	10.7222	-1 10.1794 0.943522 -11.2631	3.82577	14.7629	0.667525 10.2797 -1.57149 -4.55167	2.42912	7.3377	0.0883157 12.5016 0.82912 -15	0	-0	20.61 4.45006 1.43784 13.332	9.5824	177.71	0 -30.3438 0 -0	19.0443	-0	0 -18.964 0 1.36719e-014	-2.22307e-015	-108.471	0 -9.48199 0 1.22245	4.37968	-2.58917e-014	0 -3.17138 0 -0	7.12502	-0	0 -9.48199 0 25	15	-1.36605e-015	0.0883157 12.5016 0.82912 15	0	-0	-20.61 4.45 1.44 -20.7867	6.59771	169.809	0 -29.5102 0 -0	27.2836	-0	0 -19.2342 0 9.59503e-016	-3.54182e-015	120.316	0 -9.61712 0 1.22	4.38	-0	0 -3.29215 0 -0	7.12502	-0	0 -9.61712 0 25	15	-7.97034e-015	-8.46272 -9.62775 4.76248 17.7689	-10.7472	2.91065	1.00552e-005 -38.0331 0 -0	30.3543	-0	1.14428e-005 -43.2815 0 -39.4417	-72.1952	-40.8274	0 -14.1868 -3.08763 -0	-11.8903	-0	9.10607 -9.62778 4.76249 11.6979	6.43936	8.29395	-1.01399e-005 -38.3535 0 -0	57.4746	-0	-1.12937e-005 -42.7176 0 2.34491	-47.5109	3.17793	0 -13.9965 -2.83857 -0	-32.394	-0
12.9376	96.6461	52.578	-7.98421	-3.32589	5.35788	0 0 0 4.25314	-7.05968	-5.92582	-0.214371 12.3768 -1.12219 7.27818	-1.12158	-8.99015	-0.00137213 12.3873 0.296195 4.33806	3.24047	-4.68565	0.0883157 12.5016 0.82912 9.72761	1.46028	10.5718	-1 10.1794 0.943522 -10.979	3.70473	14.5405	0.667525 10.2797 -1.57149 -4.48135	2.34401	7.23369	0.0883157 12.5016 0.82912 -15	0	-0	20.61 4.45006 1.43784 13.9806	9.60126	176.56	0 -30.3438 0 -0	19.6559	-0	0 -18.964 0 1.371e-014	-2.10564e-015	-107.463	0 -9.48199 0 1.22245	4.37968	-2.58917e-014	0 -3.17138 0 -0	7.12502	-0	0 -9.48199 0 25	15	-1.36605e-015	0.0883157 12.5016 0.82912 15	0	-0	-20.61 4.45 1.44 -20.5415	6.22967	170.277	0 -29.5102 0 -0	27.1725	-0	0 -19.2342 0 9.67802e-016	-3.55597e-015	120.45	0 -9.61712 0 1.22	4.38	-0	0 -3.29215 0 -0	7.12502	-0	0 -9.61712 0 25	15	-7.97034e-015	-8.46272 -9.62775 4.76248 18.398	-9.92327	2.77172	1.00552e-005 -38.0331 0 -0	29.9374	-0	1.14428e-005 -43.2815 0 -40.6419	-72.164	-42.0414	0 -14.1868 -3.08763 -0	-11.9931	-0	9.10607 -9.62778 4.76249 12.6034	4.56363	7.54206	-1.01399e-005 -38.3535 0 -0	60.4567	-0	-1.12937e-005 -42.7176 0 1.93262	-48.4938	2.57939	0 -13.9965 -2.83857 -0	-33.9413	-0
